<svg xmlns="http://www.w3.org/2000/svg" xmlns:xlink="http://www.w3.org/1999/xlink" version="1.1" style="enable-background:new 0 0 24 24;" xml:space="preserve" width="24" height="24"><rect id="backgroundrect" width="100%" height="100%" x="0" y="0" fill="none" stroke="none"/>



<g class="currentLayer" style=""><title>Layer 1</title><path d="M18.8,14H9.6l0.2,1h8.5c0.5,0,0.8,0.5,0.7,0.9l-0.2,0.8c0.6,0.3,1,0.9,1,1.6c0,1-0.8,1.8-1.8,1.8c-0.9,0-1.7-0.8-1.7-1.7  c0-0.5,0.2-1,0.5-1.3h-6.6c0.3,0.3,0.5,0.8,0.5,1.3c0,1-0.8,1.8-1.8,1.8c-0.9,0-1.6-0.8-1.7-1.7c0-0.7,0.3-1.3,0.9-1.6L5.9,6H3.7  C3.3,6,2.9,5.6,2.9,5.2V4.7c0-0.4,0.3-0.8,0.8-0.8h3.2c0.4,0,0.7,0.3,0.7,0.6L7.9,6h12.4c0.5,0,0.8,0.5,0.7,0.9l-1.5,6.5  C19.5,13.8,19.2,14,18.8,14z M15.8,9.2h-1.5V8c0-0.3-0.2-0.5-0.5-0.5h-0.5c-0.3,0-0.5,0.2-0.5,0.5v1.3h-1.5c-0.3,0-0.5,0.2-0.5,0.5  v0.5c0,0.3,0.2,0.5,0.5,0.5h1.5V12c0,0.3,0.2,0.5,0.5,0.5h0.5c0.3,0,0.5-0.2,0.5-0.5v-1.3h1.5c0.3,0,0.5-0.2,0.5-0.5V9.7  C16.3,9.5,16.1,9.2,15.8,9.2z" id="svg_1" class="" fill-opacity="1" fill="#00b345"/></g></svg>