<svg xmlns="http://www.w3.org/2000/svg" xmlns:xlink="http://www.w3.org/1999/xlink" version="1.1" style="enable-background:new 0 0 24 24;" xml:space="preserve" width="24" height="24"><rect id="backgroundrect" width="100%" height="100%" x="0" y="0" fill="none" stroke="none"/>

<g class="currentLayer" style=""><title>Layer 1</title><path d="M8.5,17.2c-1,0-1.7,0.8-1.7,1.7s0.8,1.7,1.7,1.7s1.7-0.8,1.7-1.7C10.3,18,9.5,17.2,8.5,17.2C8.5,17.2,8.5,17.2,8.5,17.2z   M3.3,3.3V5H5l3.1,6.6L7,13.8c-0.1,0.3-0.2,0.5-0.2,0.8c0,1,0.8,1.7,1.7,1.7H19v-1.7H8.9c-0.1,0-0.2-0.1-0.2-0.2l0-0.1l0.8-1.4H16  c0.6,0,1.2-0.3,1.5-0.9l3.1-5.7c0.1-0.1,0.1-0.3,0.1-0.4c0-0.5-0.4-0.9-0.9-0.9H7L6.1,3.3H3.3z M17.2,17.2c-1,0-1.7,0.8-1.7,1.7  s0.8,1.7,1.7,1.7S19,19.9,19,19C19,18,18.2,17.2,17.2,17.2C17.2,17.2,17.2,17.2,17.2,17.2z" id="svg_1" class="" fill-opacity="1" fill="#ffffff"/></g></svg>