<svg xmlns="http://www.w3.org/2000/svg" xmlns:xlink="http://www.w3.org/1999/xlink" version="1.1" style="enable-background:new 0 0 24 24;" xml:space="preserve" width="24" height="24"><rect id="backgroundrect" width="100%" height="100%" x="0" y="0" fill="none" stroke="none"/>

<g class="currentLayer" style=""><title>Layer 1</title><g id="svg_1" class="" fill-opacity="1" fill="#ffffff">
	<path d="M15.2,15c0-0.1,0-0.2,0.1-0.3l1.3-1.3c0.1-0.1,0.3-0.2,0.4-0.1c0.2,0.1,0.3,0.2,0.3,0.4V19c0,0.4-0.2,0.8-0.5,1.1   c-0.3,0.3-0.7,0.5-1.1,0.5H4c-0.4,0-0.8-0.2-1.1-0.5c-0.3-0.3-0.5-0.7-0.5-1.1V7.2c0-0.4,0.2-0.8,0.5-1.1C3.1,5.7,3.5,5.6,4,5.6   h9.6c0.2,0,0.3,0.1,0.4,0.3c0.1,0.2,0,0.3-0.1,0.4l-1.3,1.4c-0.1,0.1-0.2,0.1-0.3,0.1H4.5v10.7h10.7V15z M15.9,6.2   c-0.1-0.1-0.1-0.1-0.2-0.1c-0.1,0-0.2,0-0.2,0.1L8,13.5l-0.3,3.1c0,0.2,0,0.4,0.2,0.6c0.1,0.1,0.3,0.2,0.6,0.2l3.1-0.3l7.3-7.3   C18.9,9.6,19,9.5,19,9.5c0-0.1,0-0.2-0.1-0.2L15.9,6.2z M21.3,5.4c0.2,0.3,0.4,0.6,0.4,0.9c0,0.4-0.1,0.7-0.4,0.9l-1.2,1.2   c-0.1,0.1-0.1,0.1-0.2,0.1c-0.1,0-0.2,0-0.2-0.1l-3-3c-0.1-0.1-0.1-0.1-0.1-0.2c0-0.1,0-0.2,0.1-0.2l1.2-1.2   c0.2-0.2,0.5-0.4,0.9-0.4s0.7,0.1,0.9,0.4L21.3,5.4z" id="svg_2" fill="#ffffff"/>
</g></g></svg>