<svg xmlns="http://www.w3.org/2000/svg" xmlns:xlink="http://www.w3.org/1999/xlink" version="1.1" style="enable-background:new 0 0 24 24;" xml:space="preserve" width="24" height="24"><rect id="backgroundrect" width="100%" height="100%" x="0" y="0" fill="none" stroke="none"/>



<g class="currentLayer" style=""><title>Layer 1</title><path d="M20.8,18.9c0,0.5-0.2,1-0.6,1.3s-0.8,0.6-1.3,0.6h-3.3v-7h2.4l0.4-2.7h-2.7V9.5c0-0.4,0.1-0.7,0.2-0.9  c0.2-0.2,0.6-0.4,1.1-0.4h1.4V5.8c-0.6-0.1-1.2-0.1-2-0.1c-1.1,0-1.9,0.3-2.5,0.9c-0.6,0.6-0.9,1.5-0.9,2.6v2h-2.4v2.7h2.4v7H5.1  c-0.5,0-1-0.2-1.3-0.6s-0.6-0.8-0.6-1.3V5.1c0-0.5,0.2-1,0.6-1.3s0.8-0.6,1.3-0.6h13.9c0.5,0,1,0.2,1.3,0.6s0.6,0.8,0.6,1.3V18.9z" id="svg_1" class="" fill-opacity="1" fill="#f72148"/></g></svg>