<svg xmlns="http://www.w3.org/2000/svg" xmlns:xlink="http://www.w3.org/1999/xlink" version="1.1" style="enable-background:new 0 0 24 24;" xml:space="preserve" width="24" height="24"><rect id="backgroundrect" width="100%" height="100%" x="0" y="0" fill="none" stroke="none"/>


<g class="currentLayer" style=""><title>Layer 1</title><path d="M16.5,11.5c0.2,0.2,0.3,0.4,0.3,0.7c0,0.3-0.1,0.5-0.3,0.7l-6.6,6.6c-0.2,0.2-0.4,0.3-0.7,0.3s-0.5-0.1-0.7-0.3  c-0.2-0.2-0.3-0.4-0.3-0.7V15H2.9c-0.3,0-0.5-0.1-0.7-0.3S1.9,14.3,1.9,14v-3.8C1.9,10,2,9.8,2.2,9.6c0.2-0.2,0.4-0.3,0.7-0.3h5.4  V5.5c0-0.3,0.1-0.5,0.3-0.7c0.2-0.2,0.4-0.3,0.7-0.3s0.5,0.1,0.7,0.3L16.5,11.5z M18.3,19.4c1.1,0,1.9-0.4,2.7-1.1s1.1-1.6,1.1-2.7  V8.1c0-1.1-0.4-1.9-1.1-2.7s-1.6-1.1-2.7-1.1H15c-0.1,0-0.2,0-0.3,0.1c-0.1,0.1-0.1,0.2-0.1,0.3v1.6c0,0.1,0,0.2,0.1,0.3  c0.1,0.1,0.2,0.1,0.3,0.1h3.3c0.3,0,0.6,0.1,0.9,0.4c0.2,0.2,0.4,0.5,0.4,0.9v7.6c0,0.3-0.1,0.6-0.4,0.9c-0.2,0.2-0.5,0.4-0.9,0.4  H15c-0.1,0-0.2,0-0.3,0.1s-0.1,0.2-0.1,0.3v1.6c0,0.1,0,0.2,0.1,0.3s0.2,0.1,0.3,0.1H18.3z" id="svg_1" class="" fill-opacity="1" fill="#f72148"/></g></svg>