<svg xmlns="http://www.w3.org/2000/svg" xmlns:xlink="http://www.w3.org/1999/xlink" version="1.1" style="" xml:space="preserve" width="24" height="24"><rect id="backgroundrect" width="100%" height="100%" x="0" y="0" fill="none" stroke="none"/>

<g class="currentLayer" style=""><title>Layer 1</title><path d="M9.6,19.1c0,0.1,0,0.2-0.1,0.3c-0.1,0.1-0.2,0.1-0.3,0.1H5.9c-1.1,0-1.9-0.4-2.7-1.1s-1.1-1.6-1.1-2.7V8.2  c0-1.1,0.4-1.9,1.1-2.7s1.6-1.1,2.7-1.1h3.3c0.1,0,0.2,0,0.3,0.1c0.1,0.1,0.1,0.2,0.1,0.3v1.6c0,0.1,0,0.2-0.1,0.3  C9.4,6.9,9.3,7,9.2,7H5.9C5.5,7,5.2,7.1,5,7.3S4.6,7.9,4.6,8.2v7.6c0,0.3,0.1,0.6,0.4,0.9S5.5,17,5.9,17h3.3c0.1,0,0.2,0,0.3,0.1  c0.1,0.1,0.1,0.2,0.1,0.3V19.1z M21.7,12.7c0.2-0.2,0.3-0.4,0.3-0.7s-0.1-0.5-0.3-0.7L15,4.7c-0.2-0.2-0.4-0.3-0.7-0.3  s-0.5,0.1-0.7,0.3c-0.2,0.2-0.3,0.4-0.3,0.7v3.8H8.1c-0.3,0-0.5,0.1-0.7,0.3c-0.2,0.2-0.3,0.4-0.3,0.7v3.8c0,0.3,0.1,0.5,0.3,0.7  c0.2,0.2,0.4,0.3,0.7,0.3h5.4v3.8c0,0.3,0.1,0.5,0.3,0.7c0.2,0.2,0.4,0.3,0.7,0.3s0.5-0.1,0.7-0.3L21.7,12.7z" id="svg_1" class="" fill-opacity="1" fill="#f72148"/></g></svg>