<?xml version="1.0" encoding="UTF-8" standalone="no"?>
<svg
   xmlns:dc="http://purl.org/dc/elements/1.1/"
   xmlns:cc="http://creativecommons.org/ns#"
   xmlns:rdf="http://www.w3.org/1999/02/22-rdf-syntax-ns#"
   xmlns:svg="http://www.w3.org/2000/svg"
   xmlns="http://www.w3.org/2000/svg"
   id="svg9"
   height="36"
   width="36"
   xml:space="preserve"
   style="enable-background:new 0 0 24 24;"
   version="1.1"><metadata
   id="metadata15"><rdf:RDF><cc:Work
       rdf:about=""><dc:format>image/svg+xml</dc:format><dc:type
         rdf:resource="http://purl.org/dc/dcmitype/StillImage" /></cc:Work></rdf:RDF></metadata><defs
   id="defs13" /><rect
   stroke="none"
   fill="none"
   y="0"
   x="0"
   height="100%"
   width="100%"
   id="backgroundrect" />

<g
   id="g7"
   style=""
   class="currentLayer"><title
     id="title3">Layer 1</title><g
     fill="#6fd370"
     fill-opacity="1"
     class=""
     id="svg_1">
	<path
   fill="#6fd370"
   id="svg_2"
   d="M9.6,14l0.2,1h8.4c0.2,0,0.4,0.1,0.6,0.3c0.1,0.2,0.2,0.4,0.2,0.6l-0.2,0.8c0.3,0.1,0.6,0.4,0.7,0.6   c0.2,0.3,0.3,0.6,0.3,0.9c0,0.5-0.2,0.9-0.5,1.2C18.9,19.9,18.5,20,18,20s-0.9-0.2-1.2-0.5c-0.3-0.3-0.5-0.7-0.5-1.2   c0-0.5,0.2-0.9,0.5-1.3h-6.6c0.4,0.3,0.5,0.8,0.5,1.3c0,0.5-0.2,0.9-0.5,1.3c-0.4,0.3-0.8,0.5-1.3,0.5c-0.4,0-0.8-0.2-1.1-0.5   c-0.3-0.3-0.5-0.7-0.5-1.1c0-0.3,0.1-0.6,0.2-0.9c0.2-0.3,0.4-0.5,0.7-0.7L5.9,6H3.7C3.5,6,3.3,5.9,3.2,5.8C3,5.6,3,5.4,3,5.2V4.7   C3,4.5,3,4.3,3.2,4.2C3.3,4,3.5,4,3.7,4H7C7.1,4,7.3,4,7.4,4.1c0.1,0.1,0.2,0.3,0.3,0.4L8,6h12.3c0.3,0,0.4,0.1,0.6,0.3   s0.2,0.4,0.1,0.6l-1.5,6.5c0,0.2-0.1,0.3-0.3,0.4C19.1,14,19,14,18.8,14H9.6z M14.3,10V8.1c0-0.1,0-0.2-0.1-0.3   c-0.1-0.1-0.2-0.1-0.3-0.1h-0.8c-0.1,0-0.2,0-0.3,0.1c-0.1,0.1-0.1,0.2-0.1,0.3V10h-1.3c-0.2,0-0.3,0.1-0.3,0.2   c-0.1,0.2,0,0.3,0.1,0.4l2.1,2.1c0.1,0.1,0.1,0.1,0.3,0.1s0.2,0,0.3-0.1l2.1-2.1c0.1-0.1,0.1-0.2,0.1-0.4S15.8,10,15.6,10H14.3z" />
</g></g></svg>