<svg xmlns="http://www.w3.org/2000/svg" xmlns:xlink="http://www.w3.org/1999/xlink" version="1.1" style="enable-background:new 0 0 24 24;" xml:space="preserve" width="24" height="24"><rect id="backgroundrect" width="100%" height="100%" x="0" y="0" fill="none" stroke="none"/>

<g class="currentLayer" style=""><title>Layer 1</title><g id="svg_1" class="" fill-opacity="1" fill="#ffffff">
	<path d="M17.6,4.5c0.5,0,1,0.2,1.3,0.5s0.5,0.8,0.5,1.3v13.8c0,0.5-0.2,1-0.5,1.3S18.1,22,17.6,22H6.4c-0.5,0-1-0.2-1.3-0.5   s-0.5-0.8-0.5-1.3V6.4c0-0.5,0.2-1,0.5-1.3s0.8-0.5,1.3-0.5h3.1c0-0.7,0.2-1.3,0.7-1.8S11.3,2,12,2s1.3,0.2,1.8,0.7   s0.7,1.1,0.7,1.8H17.6z M8.3,11.1c0.3,0,0.5-0.1,0.7-0.3s0.3-0.4,0.3-0.7S9.1,9.6,8.9,9.5S8.5,9.2,8.3,9.2S7.8,9.3,7.6,9.5   s-0.3,0.4-0.3,0.7s0.1,0.5,0.3,0.7S8,11.1,8.3,11.1z M8.3,14.8c0.3,0,0.5-0.1,0.7-0.3s0.3-0.4,0.3-0.7s-0.1-0.5-0.3-0.7   s-0.4-0.3-0.7-0.3S7.8,13,7.6,13.2s-0.3,0.4-0.3,0.7s0.1,0.5,0.3,0.7S8,14.8,8.3,14.8z M8.3,18.6c0.3,0,0.5-0.1,0.7-0.3   s0.3-0.4,0.3-0.7S9.1,17.1,8.9,17s-0.4-0.3-0.7-0.3S7.8,16.8,7.6,17s-0.3,0.4-0.3,0.7s0.1,0.5,0.3,0.7S8,18.6,8.3,18.6z M17,10.4   V9.8c0-0.1,0-0.1-0.1-0.2s-0.1-0.1-0.2-0.1h-5.6c-0.1,0-0.1,0-0.2,0.1s-0.1,0.1-0.1,0.2v0.6c0,0.1,0,0.1,0.1,0.2s0.1,0.1,0.2,0.1   h5.6c0.1,0,0.1,0,0.2-0.1S17,10.5,17,10.4z M17,14.2v-0.6c0-0.1,0-0.1-0.1-0.2s-0.1-0.1-0.2-0.1h-5.6c-0.1,0-0.1,0-0.2,0.1   s-0.1,0.1-0.1,0.2v0.6c0,0.1,0,0.1,0.1,0.2s0.1,0.1,0.2,0.1h5.6c0.1,0,0.1,0,0.2-0.1S17,14.3,17,14.2z M17,17.9v-0.6   c0-0.1,0-0.1-0.1-0.2S16.8,17,16.7,17h-5.6c-0.1,0-0.1,0-0.2,0.1s-0.1,0.1-0.1,0.2v0.6c0,0.1,0,0.1,0.1,0.2s0.1,0.1,0.2,0.1h5.6   c0.1,0,0.1,0,0.2-0.1S17,18,17,17.9z M12,3.6c-0.3,0-0.5,0.1-0.7,0.3s-0.3,0.4-0.3,0.7s0.1,0.5,0.3,0.7s0.4,0.3,0.7,0.3   s0.5-0.1,0.7-0.3s0.3-0.4,0.3-0.7S12.8,4,12.7,3.8S12.3,3.6,12,3.6z" id="svg_2" fill="#ffffff"/>
</g></g></svg>