<svg xmlns="http://www.w3.org/2000/svg" xmlns:xlink="http://www.w3.org/1999/xlink" version="1.1" style="enable-background:new 0 0 24 24;" xml:space="preserve" width="24" height="24"><rect id="backgroundrect" width="100%" height="100%" x="0" y="0" fill="none" stroke="none"/>





<g class="currentLayer" style=""><title>Layer 1</title><path d="M12,1.9c1.8,0,3.5,0.5,5.1,1.4c1.5,0.9,2.7,2.1,3.6,3.7c0.9,1.5,1.4,3.2,1.4,5v6.5c0,1-0.3,1.8-1,2.5s-1.5,1-2.5,1h-7.2  c-0.5,0-1-0.2-1.3-0.6c-0.4-0.4-0.6-0.8-0.6-1.3c0-0.5,0.2-1,0.6-1.3s0.8-0.6,1.3-0.6h1.3c0.5,0,1,0.2,1.3,0.6s0.6,0.8,0.6,1.3h4  c0.4,0,0.8-0.2,1.2-0.5s0.5-0.7,0.5-1.2V12c0-1.5-0.4-2.8-1.1-4.1s-1.7-2.3-3-3c-1.3-0.7-2.6-1.1-4.1-1.1S9.2,4.2,7.9,4.9  s-2.3,1.7-3,3S3.8,10.5,3.8,12v0.6c0,0.2-0.1,0.3-0.2,0.5s-0.3,0.2-0.5,0.2H2.5c-0.2,0-0.3-0.1-0.5-0.2C2,13,1.9,12.8,1.9,12.6V12  C2,10.2,2.4,8.5,3.4,7s2.1-2.8,3.6-3.7C8.5,2.4,10.2,1.9,12,1.9z M9.5,10.1v4.4c0,0.3-0.1,0.6-0.4,0.9s-0.5,0.4-0.9,0.4H7.6  c-0.7,0-1.3-0.2-1.8-0.7S5.1,14,5.1,13.3v-1.9c0-0.7,0.2-1.3,0.7-1.8s1.1-0.7,1.8-0.7h0.6c0.3,0,0.6,0.1,0.9,0.4S9.5,9.8,9.5,10.1z   M16.4,15.8h-0.6c-0.3,0-0.6-0.1-0.9-0.4s-0.4-0.5-0.4-0.9v-4.4c0-0.3,0.1-0.6,0.4-0.9s0.5-0.4,0.9-0.4h0.6c0.7,0,1.3,0.2,1.8,0.7  s0.7,1.1,0.7,1.8v1.9c0,0.7-0.2,1.3-0.7,1.8S17.1,15.8,16.4,15.8z" id="svg_1" class="" fill-opacity="1" fill="#f72148"/></g></svg>