<?xml version="1.0" encoding="utf-8"?>
<!-- Generator: Adobe Illustrator 23.1.0, SVG Export Plug-In . SVG Version: 6.00 Build 0)  -->
<svg version="1.1" id="Layer_1" xmlns="http://www.w3.org/2000/svg" xmlns:xlink="http://www.w3.org/1999/xlink" x="0px" y="0px"
	viewBox="0 0 24 24" style="enable-background:new 0 0 24 24;" xml:space="preserve">
<style type="text/css">
	.st0{fill:none;}
</style>
<path class="st0" d="M0,0h24v24H0V0z"/>
<circle cx="12" cy="12" r="3"/>
<path d="M20,4h-3.2l-1.2-1.3C15.2,2.2,14.7,2,14.1,2H9.9C9.3,2,8.8,2.2,8.4,2.7L7.2,4H4C2.9,4,2,4.9,2,6v12c0,1.1,0.9,2,2,2h16
	c1.1,0,2-0.9,2-2V6C22,4.9,21.1,4,20,4z M12,17c-2.8,0-5-2.2-5-5s2.2-5,5-5s5,2.2,5,5S14.8,17,12,17z"/>
</svg>
