<?xml version="1.0" encoding="utf-8"?>
<!-- Generator: Adobe Illustrator 23.1.0, SVG Export Plug-In . SVG Version: 6.00 Build 0)  -->
<svg version="1.1" id="Layer_1" xmlns="http://www.w3.org/2000/svg" xmlns:xlink="http://www.w3.org/1999/xlink" x="0px" y="0px"
	 viewBox="0 0 24 24" style="enable-background:new 0 0 24 24;" xml:space="preserve">
<style type="text/css">
	.st0{fill:#C7D3DD;}
</style>
<g>
	<path class="st0" d="M21.7,20c-0.4-1.3-0.9-2.7-1.3-4c-0.4-1.1-1.4-1.5-2.5-1.4c-2.1,0.3-4.2,0.8-6.3,0.7C9.8,15.2,8,15,6.3,14.6
		c-1.2-0.3-2.4,0.6-2.7,1.6c-0.3,1.2-0.8,2.4-1.2,3.5C2,21,2.6,22,4,22c2.7,0,5.3,0,8,0c2.7,0,5.4,0,8.1,0C21.2,22,22,21,21.7,20z
		 M19.9,21c-2.6,0-5.3,0-7.9,0c-2.6,0-5.1,0-7.7,0c-0.9,0-1.2-0.3-0.9-1.2c0.4-1.2,0.8-2.3,1.2-3.5c0.3-0.8,0.6-1,1.5-0.9
		c2.1,0.3,4.2,0.8,6.4,0.7c1.9-0.1,3.8-0.4,5.6-0.7c0.7-0.1,1.2,0.1,1.4,0.7c0.5,1.3,0.9,2.5,1.3,3.8C20.9,20.7,20.6,21,19.9,21z"/>
	<path class="st0" d="M15.2,12.8c1.5-1.6,2-3.4,2-5.5c0-0.2,0-0.5,0-0.7c0-1.9-1.1-3.5-2.8-4.2c-1.1-0.5-2.3-0.5-3.5-0.3
		c-1.8,0.3-3.2,1.1-3.8,3c-0.8,2.7-0.3,5.3,1.5,7.5C10.5,15,13.2,14.9,15.2,12.8z M8.6,4.2c0.5-0.5,1-0.9,1.7-1.1
		c1.5-0.4,2.9-0.3,4.3,0.5c-0.7,0.1-1.4,0.1-2.1,0.4c-0.4,0.2-0.5,0.4-0.2,0.8c0.3,0.4,0.2,0.5-0.2,0.6c-1.3,0.2-2.4-0.2-3.5-0.8
		C8.4,4.5,8.5,4.4,8.6,4.2z M7.7,6.3c0.1-0.9,0.2-0.9,1-0.5c1.5,0.7,3.1,1,4.7,0.3c0.5-0.2,0.8-0.4,0.3-1c-0.3-0.3-0.2-0.5,0.2-0.4
		c2,0.1,2.4,0.2,2.4,2.7c0.1,1.9-0.6,3.5-1.8,4.8c-1.3,1.5-3.2,1.7-4.7,0.3C8,10.8,7.6,8.6,7.7,6.3z"/>
</g>
</svg>
