<?xml version="1.0" encoding="utf-8"?>
<!-- Generator: Adobe Illustrator 23.1.0, SVG Export Plug-In . SVG Version: 6.00 Build 0)  -->
<svg version="1.1" id="Layer_1" xmlns="http://www.w3.org/2000/svg" xmlns:xlink="http://www.w3.org/1999/xlink" x="0px" y="0px"
	 viewBox="0 0 401 400.3" style="enable-background:new 0 0 401 400.3;" xml:space="preserve">
<style type="text/css">
	.st0{fill-rule:evenodd;clip-rule:evenodd;fill:url(#SVGID_1_);}
	.st1{fill:#07AFE9;}
	.st2{font-family:'HarabaraMaisBold-HarabaraMaisBold';}
	.st3{font-size:60px;}
	.st4{fill:#86C44B;}
</style>
<g>
	<linearGradient id="SVGID_1_" gradientUnits="userSpaceOnUse" x1="201.3785" y1="250.8345" x2="201.3785" y2="54.8455">
		<stop  offset="0" style="stop-color:#07AFE9"/>
		<stop  offset="1" style="stop-color:#86C44B"/>
	</linearGradient>
	<path class="st0" d="M299.3,166.9c0.3,15,0.1,17-14.5,17.1c-15.8,0-31.5,0.1-47.3-0.1c-3,0-4.8,0.5-4.5,4c0,7.7,0,48.3,0,53
		c0.4,8.4-1.1,9.9-9.4,9.9c-14.6,0-29.1,0-43.7,0c-8.3,0-9.8-1.6-9.4-9.9c0-4.7-0.2-22.5-0.2-26.9c0-3.9,1.4-4.5,5-5.2
		c16.9-5.2,32.3-13.3,46.8-23.2l0,0c7.7-6.6,15.4-13.2,23.1-19.7c5.3-5.7,10.5-11.5,15.8-17.2c3.3-4.3,6.6-8.6,9.9-12.9
		c2.8-4.3,5.5-8.6,8.2-12.9c0.9-1.4,2-2.1,3.7-1.9c1,0.1,2,0,3,0c14.1,0,13.6,1.7,13.6,15.9C299.1,141.4,299.3,161,299.3,166.9z
		 M240.4,97.7c-12.3-0.2-21.7-10.4-20.9-22.8c1.1-11.9,9.7-20,21.2-20c11.5,0,20.1,8.1,21.2,20C262.5,87.6,252.8,97.9,240.4,97.7z
		 M196.9,164.9c-5.7,12.9-14.8,23.1-25.6,32.2c-1.7,0-1-3.6-1-5.3c-0.1-7.8-0.1-7.8-8-7.8c-16.6,0-33.2,0-49.8,0
		c-7.2,0-9.2-2-9.1-9.2c0.1-3.6,0.3-43.9,0.3-43.9c-0.1-8.4,1.4-10,9.7-10c17.4,0,34.8-0.1,52.2,0.1c3.7,0,5.1-0.9,4.7-4.7
		c0.2-4,0-49.7,0-55.8c0-1.3,0-2.9,1.5-3.3c0.7-0.1,1.9,1.1,2.6,2C221,102.7,199.6,159.8,196.9,164.9z"/>
	<text transform="matrix(1 0 0 1 19.2953 323.7239)"><tspan x="0" y="0" class="st1 st2 st3">Medi</tspan><tspan x="122.6" y="0" class="st4 st2 st3">Archieve</tspan></text>
</g>
</svg>
