<?xml version="1.0" encoding="utf-8"?>
<!-- Generator: Adobe Illustrator 23.1.0, SVG Export Plug-In . SVG Version: 6.00 Build 0)  -->
<svg version="1.1" id="Layer_1" xmlns="http://www.w3.org/2000/svg" xmlns:xlink="http://www.w3.org/1999/xlink" x="0px" y="0px"
	 viewBox="0 0 70 70" style="enable-background:new 0 0 70 70;" xml:space="preserve">
<style type="text/css">
	.st0{fill:#0093C9;}
</style>
<g>
	<path class="st0" d="M31.2,21.6c0-6.3-4.3-10.8-10-11c-6-0.3-10.8,3.5-11,10c-0.3,9-0.3,18.3,0,27.5c0.3,6.5,5,10.3,11,10
		c5.8-0.3,9.8-4.8,10-11c0-4.3,0-8.5,0-12.8C31.2,30.4,31.2,25.9,31.2,21.6z M27.7,48.1c-0.3,4.3-3.3,7-7,7s-7-2.8-7.3-6.5
		c-0.3-3.8,0-7.5,0-11.5c0-1.8,0.8-2,2.3-2s3,0,4.8,0c7.5,0,7.5,0,7.5,7.5C27.7,44.6,27.7,46.4,27.7,48.1z"/>
	<path class="st0" d="M60,22.4c0-1.8,0-3.5,0-5.3c0-4-1.8-5.8-5.5-5.8c-4,0-7.8-0.3-11.8,0c-3.3,0.3-5,2-5,5.3c0,4,0,8,0,12
		c0,3.3,1.8,5,5,5.3c4,0.3,8,0,12,0c3.3,0,5-1.8,5.3-5C60,26.6,60,24.4,60,22.4L60,22.4z M49,30.4c-8.3,0-8.5,0-8.3-8.5
		c0-8.8-1-7.3,8-7.5c8.3,0,8.3,0,8.3,8C56.7,31.6,58.2,30.4,49,30.4z"/>
	<path class="st0" d="M49,36.9c-6.3-0.3-11.3,5-11.3,11.3s5,11.3,11.3,11.3s11-4.8,11-11S55.2,37.1,49,36.9z M49,56.2
		c-4.5,0-8.3-3.5-8.3-8c0-4.3,3.8-8,8-8c4.5,0,8.3,3.5,8.3,8C56.7,52.7,53.2,56.2,49,56.2z"/>
	<path class="st0" d="M45.5,44.1c-0.3,0-0.8,0.3-0.8,0.5c-0.3,0.3,0,0.8,0,1c2.3,2.3,4.5,4.5,6.8,6.8c0.8,0.8,1.3,0.3,1.5-0.5
		C53,50.9,46,43.9,45.5,44.1z"/>
	<polygon class="st0" points="49.7,17.1 47.7,17.1 47.7,21.4 43.5,21.4 43.5,23.4 47.7,23.4 47.7,27.9 49.7,27.9 49.7,23.4 54,23.4 
		54,21.4 49.7,21.4 	"/>
</g>
</svg>
