<?xml version="1.0" encoding="utf-8"?>
<!-- Generator: Adobe Illustrator 23.1.0, SVG Export Plug-In . SVG Version: 6.00 Build 0)  -->
<svg version="1.1" id="Layer_1" xmlns="http://www.w3.org/2000/svg" xmlns:xlink="http://www.w3.org/1999/xlink" x="0px" y="0px"
	 viewBox="0 0 24 24" style="enable-background:new 0 0 24 24;" xml:space="preserve">
<style type="text/css">
	.st0{fill:#010101;}
</style>
<g>
	<path class="st0" d="M10.5,6.6c0-2.5-1.7-4.3-4-4.4c-2.4-0.1-4.3,1.4-4.4,4c-0.1,3.6-0.1,7.3,0,11c0.1,2.6,2,4.1,4.4,4
		c2.3-0.1,3.9-1.9,4-4.4c0-1.7,0-3.4,0-5.1C10.5,10.1,10.5,8.3,10.5,6.6z M9.1,17.2C9,18.9,7.8,20,6.3,20c-1.5,0-2.8-1.1-2.9-2.6
		c-0.1-1.5,0-3,0-4.6c0-0.7,0.3-0.8,0.9-0.8c0.6,0,1.2,0,1.9,0c3,0,3,0,3,3C9.1,15.8,9.1,16.5,9.1,17.2z"/>
	<path class="st0" d="M22,6.9c0-0.7,0-1.4,0-2.1c0-1.6-0.7-2.3-2.2-2.3c-1.6,0-3.1-0.1-4.7,0c-1.3,0.1-2,0.8-2,2.1
		c0,1.6,0,3.2,0,4.8c0,1.3,0.7,2,2,2.1c1.6,0.1,3.2,0,4.8,0c1.3,0,2-0.7,2.1-2C22,8.6,22,7.7,22,6.9C22,6.9,22,6.9,22,6.9z
		 M17.6,10.1c-3.3,0-3.4,0-3.3-3.4c0-3.5-0.4-2.9,3.2-3c3.3,0,3.3,0,3.3,3.2C20.7,10.6,21.3,10.1,17.6,10.1z"/>
	<path class="st0" d="M17.6,12.7c-2.5-0.1-4.5,2-4.5,4.5c0,2.5,2,4.5,4.5,4.5c2.5,0,4.4-1.9,4.4-4.4C22,14.8,20.1,12.8,17.6,12.7z
		 M17.6,20.4c-1.8,0-3.3-1.4-3.3-3.2c0-1.7,1.5-3.2,3.2-3.2c1.8,0,3.3,1.4,3.3,3.2C20.7,19,19.3,20.4,17.6,20.4z"/>
	<path class="st0" d="M16.2,15.6c-0.1,0-0.3,0.1-0.3,0.2c-0.1,0.1,0,0.3,0,0.4c0.9,0.9,1.8,1.8,2.7,2.7c0.3,0.3,0.5,0.1,0.6-0.2
		C19.2,18.3,16.4,15.5,16.2,15.6z"/>
	<polygon class="st0" points="17.9,4.8 17.1,4.8 17.1,6.5 15.4,6.5 15.4,7.3 17.1,7.3 17.1,9.1 17.9,9.1 17.9,7.3 19.6,7.3 
		19.6,6.5 17.9,6.5 	"/>
</g>
</svg>
