<?xml version="1.0" encoding="utf-8"?>
<!-- Generator: Adobe Illustrator 23.1.0, SVG Export Plug-In . SVG Version: 6.00 Build 0)  -->
<svg version="1.1" id="Layer_1" xmlns="http://www.w3.org/2000/svg" xmlns:xlink="http://www.w3.org/1999/xlink" x="0px" y="0px"
	 viewBox="0 0 100 100" style="enable-background:new 0 0 100 100;" xml:space="preserve">
<style type="text/css">
	.st0{fill:#010101;}
</style>
<g>
	<path class="st0" d="M44.2,27.6h1.6l3.2,4.8l0,0l1.2,1.6l-4.4,6.8h2.8l2.8-4.8l2.8,4.8h3.6l-4.4-6.4l4-6.4h-2.8l-2.8,4.8v-0.4l0,0
		c0-0.4-0.4-0.8-0.8-1.2L49,28h-0.4c-0.4-0.4-0.4-0.8-0.8-1.2c0.8-0.4,1.6-0.8,2-1.6c0.4-0.4,0.8-1.2,0.8-2c0-1.2-0.4-2.4-1.2-2.8
		c-0.8-0.8-2-0.8-4-0.8h-4v12.8h2.8C44.2,32.4,44.2,27.6,44.2,27.6z M44.2,21.6H45c0.8,0,1.6,0,2,0.4c0.4,0.4,0.8,0.8,0.8,1.2
		c0,0.8-0.4,1.2-0.8,1.2c-0.4,0.4-1.2,0.4-2,0.4h-0.8V21.6z"/>
	<path class="st0" d="M80.5,15.6c0-4-1.6-5.6-5.6-5.6c-16.8,0-33.5,0-49.9,0c-4,0-5.6,1.2-5.6,5.6c0,11.2,0,22.8,0,33.9l0,0
		c0,11.2,0,22.4,0,33.5c0,5.6,0.4,6.4,6,6.4c10,0,20.4-0.8,30.4,0.4c9.6,0.8,16.4-2,22.4-9.6c1.6-2,2.4-3.6,2.4-6
		C80.2,54.7,80.2,35.2,80.5,15.6z M73.4,76.3c-1.2,0-2.4,0-3.6,0c-2.4-0.4-3.6,0.8-3.2,3.2c0,1.2,0,2.4,0,3.6
		c0.4,2.4-0.4,3.6-3.2,3.6c-12.4,0-24.8,0-37.1,0c-3.2,0-3.6-1.2-3.6-3.6c0-10.8,0-22,0-32.7c0-11.2,0-22,0-33.1c0-3.2,0.8-4,4-4
		c15.6,0,31.5,0,47.1,0c3.2,0,3.6,1.2,3.6,4c0,18.4,0,37.1,0,55.5C77.4,75.5,76.2,76.3,73.4,76.3z"/>
	<path class="st0" d="M67.8,60.3c-10,0-20.4,0-30.4,0c-9.6,0-9.2,0-9.2,9.6c0,2.8,0.8,3.2,3.6,3.2c6,0,12,0,18,0c4.4,0,8.4,0,12.8,0
		c9.2,0,9.2,0,8.8-9.2C71.4,61.1,70.6,60.3,67.8,60.3z"/>
	<path class="st0" d="M68.6,45.5c-12.4,0-25.2,0-37.5,0c-4.4,0-2.4,3.2-2.8,5.2s-0.4,4,2.8,3.6c6-0.4,12,0,18,0c6.4,0,12.8,0,19.2,0
		c3.2,0,3.2-1.6,2.8-3.6C71,49.1,73,45.5,68.6,45.5z"/>
</g>
</svg>
