<?xml version="1.0" encoding="utf-8"?>
<!-- Generator: Adobe Illustrator 23.1.0, SVG Export Plug-In . SVG Version: 6.00 Build 0)  -->
<svg version="1.1" id="Layer_1" xmlns="http://www.w3.org/2000/svg" xmlns:xlink="http://www.w3.org/1999/xlink" x="0px" y="0px"
	viewBox="0 0 24 24" style="enable-background:new 0 0 24 24;" xml:space="preserve">
<style type="text/css">
	.st0{fill:#669900;}
</style>
<g>
	<path class="st0" d="M10.6,6.4H11l0.8,1.2l0,0L12.1,8L11,9.7h0.7l0.7-1.2l0.7,1.2H14l-1.1-1.6l1-1.6h-0.7l-0.7,1.2V7.6l0,0
		c0-0.1-0.1-0.2-0.2-0.3l-0.5-0.8h-0.1c-0.1-0.1-0.1-0.2-0.2-0.3C11.7,6.1,11.9,6,12,5.8c0.1-0.1,0.2-0.3,0.2-0.5
		c0-0.3-0.1-0.6-0.3-0.7c-0.2-0.2-0.5-0.2-1-0.2h-1v3.2h0.7C10.6,7.6,10.6,6.4,10.6,6.4z M10.6,4.9h0.2c0.2,0,0.4,0,0.5,0.1
		s0.2,0.2,0.2,0.3c0,0.2-0.1,0.3-0.2,0.3c-0.1,0.1-0.3,0.1-0.5,0.1h-0.2V4.9z"/>
	<path class="st0" d="M19.7,3.4c0-1-0.4-1.4-1.4-1.4C14.1,2,9.9,2,5.8,2c-1,0-1.4,0.3-1.4,1.4c0,2.8,0,5.7,0,8.5l0,0
		c0,2.8,0,5.6,0,8.4c0,1.4,0.1,1.6,1.5,1.6c2.5,0,5.1-0.2,7.6,0.1c2.4,0.2,4.1-0.5,5.6-2.4c0.4-0.5,0.6-0.9,0.6-1.5
		C19.6,13.2,19.6,8.3,19.7,3.4z M17.9,18.6c-0.3,0-0.6,0-0.9,0c-0.6-0.1-0.9,0.2-0.8,0.8c0,0.3,0,0.6,0,0.9c0.1,0.6-0.1,0.9-0.8,0.9
		c-3.1,0-6.2,0-9.3,0c-0.8,0-0.9-0.3-0.9-0.9c0-2.7,0-5.5,0-8.2c0-2.8,0-5.5,0-8.3c0-0.8,0.2-1,1-1c3.9,0,7.9,0,11.8,0
		c0.8,0,0.9,0.3,0.9,1c0,4.6,0,9.3,0,13.9C18.9,18.4,18.6,18.6,17.9,18.6z"/>
	<path class="st0" d="M16.5,14.6c-2.5,0-5.1,0-7.6,0c-2.4,0-2.3,0-2.3,2.4c0,0.7,0.2,0.8,0.9,0.8c1.5,0,3,0,4.5,0c1.1,0,2.1,0,3.2,0
		c2.3,0,2.3,0,2.2-2.3C17.4,14.8,17.2,14.6,16.5,14.6z"/>
	<path class="st0" d="M16.7,10.9c-3.1,0-6.3,0-9.4,0c-1.1,0-0.6,0.8-0.7,1.3s-0.1,1,0.7,0.9c1.5-0.1,3,0,4.5,0c1.6,0,3.2,0,4.8,0
		c0.8,0,0.8-0.4,0.7-0.9C17.3,11.8,17.8,10.9,16.7,10.9z"/>
</g>
</svg>
