<?xml version="1.0" encoding="utf-8"?>
<!-- Generator: Adobe Illustrator 23.1.0, SVG Export Plug-In . SVG Version: 6.00 Build 0)  -->
<svg version="1.1" id="Layer_1" xmlns="http://www.w3.org/2000/svg" xmlns:xlink="http://www.w3.org/1999/xlink" x="0px" y="0px"
	 viewBox="0 0 50 50" style="enable-background:new 0 0 50 50;" xml:space="preserve">
<style type="text/css">
	.st0{fill:#010101;}
</style>
<g>
	<path class="st0" d="M22.1,13.8h0.8l1.6,2.4l0,0l0.6,0.8l-2.2,3.4h1.4l1.4-2.4l1.4,2.4h1.8l-2.2-3.2l2-3.2h-1.4l-1.4,2.4v-0.2l0,0
		c0-0.2-0.2-0.4-0.4-0.6l-1-1.6h-0.2c-0.2-0.2-0.2-0.4-0.4-0.6c0.4-0.2,0.8-0.4,1-0.8c0.2-0.2,0.4-0.6,0.4-1c0-0.6-0.2-1.2-0.6-1.4
		c-0.4-0.4-1-0.4-2-0.4h-2v6.4h1.4C22.1,16.2,22.1,13.8,22.1,13.8z M22.1,10.8h0.4c0.4,0,0.8,0,1,0.2c0.2,0.2,0.4,0.4,0.4,0.6
		c0,0.4-0.2,0.6-0.4,0.6c-0.2,0.2-0.6,0.2-1,0.2h-0.4V10.8z"/>
	<path class="st0" d="M40.3,7.8c0-2-0.8-2.8-2.8-2.8c-8.4,0-16.8,0-25,0c-2,0-2.8,0.6-2.8,2.8c0,5.6,0,11.4,0,17l0,0
		c0,5.6,0,11.2,0,16.8c0,2.8,0.2,3.2,3,3.2c5,0,10.2-0.4,15.2,0.2c4.8,0.4,8.2-1,11.2-4.8c0.8-1,1.2-1.8,1.2-3
		C40.1,27.4,40.1,17.6,40.3,7.8z M36.7,38.1c-0.6,0-1.2,0-1.8,0c-1.2-0.2-1.8,0.4-1.6,1.6c0,0.6,0,1.2,0,1.8
		c0.2,1.2-0.2,1.8-1.6,1.8c-6.2,0-12.4,0-18.6,0c-1.6,0-1.8-0.6-1.8-1.8c0-5.4,0-11,0-16.4c0-5.6,0-11,0-16.6c0-1.6,0.4-2,2-2
		c7.8,0,15.8,0,23.6,0c1.6,0,1.8,0.6,1.8,2c0,9.2,0,18.6,0,27.8C38.7,37.7,38.1,38.1,36.7,38.1z"/>
	<path class="st0" d="M33.9,30.2c-5,0-10.2,0-15.2,0c-4.8,0-4.6,0-4.6,4.8c0,1.4,0.4,1.6,1.8,1.6c3,0,6,0,9,0c2.2,0,4.2,0,6.4,0
		c4.6,0,4.6,0,4.4-4.6C35.7,30.6,35.3,30.2,33.9,30.2z"/>
	<path class="st0" d="M34.3,22.8c-6.2,0-12.6,0-18.8,0c-2.2,0-1.2,1.6-1.4,2.6s-0.2,2,1.4,1.8c3-0.2,6,0,9,0c3.2,0,6.4,0,9.6,0
		c1.6,0,1.6-0.8,1.4-1.8C35.5,24.6,36.5,22.8,34.3,22.8z"/>
</g>
</svg>
