<?xml version="1.0" encoding="utf-8"?>
<!-- Generator: Adobe Illustrator 23.1.0, SVG Export Plug-In . SVG Version: 6.00 Build 0)  -->
<svg version="1.1" id="Layer_1" xmlns="http://www.w3.org/2000/svg" xmlns:xlink="http://www.w3.org/1999/xlink" x="0px" y="0px"
	 viewBox="0 0 70 70" style="enable-background:new 0 0 70 70;" xml:space="preserve">
<style type="text/css">
	.st0{fill:#0093C9;}
</style>
<g>
	<path class="st0" d="M14.8,24c2.5-4,6.2-7,10.7-8.7c2-1,1.5-1.7,0.2-2.7c-2.5-2.5-6.7-3.3-10-1.5c-3.5,1.5-5.5,4.5-5.8,8.3
		c0,1.7,0.5,3,1,4.5C12,25.5,13,26.5,14.8,24z"/>
	<path class="st0" d="M54.5,10.8c-3.3-1.5-7.5-0.8-10,1.7c-1.2,1.3-1.7,1.8,0.5,2.8c4,1.7,7.5,4.2,10.2,7.7c0.8,1,1,3,2.5,2.5
		c1.2-0.5,1.7-2.3,2.3-3.5c0-1,0-1.7,0-2.5C60,15.3,58,12.6,54.5,10.8z"/>
	<path class="st0" d="M55,53.8c-2.5-1.7-2-3.3-0.8-5.8c7.7-14.5-2.7-31.7-19.2-31.7c-16.7,0-27.3,17.5-19.2,32.2
		c1,2,1.2,3.3-0.8,4.8c-1.7,1.5-3.3,3.5-1,5.5c2,2,4,0.5,5.5-1.2c1.5-2,2.7-1.7,4.8-0.5c7,3.7,14,4,21,0c2.3-1.3,3.5-1,5,0.8
		c1.5,1.7,3.3,2.7,5.2,1C58,57,56.7,55.1,55,53.8z M35,53.8c-8.5,0-15.7-7.3-15.7-15.7c0.2-8.5,7.3-15.5,15.7-15.5
		c8.7,0,15.5,6.7,15.5,15.5S43.7,53.8,35,53.8z"/>
	<path class="st0" d="M38,28.8c0-1.7-1.3-3-3-3s-2.7,1-3,2.5c-0.2,1.2-0.2,2.5-0.2,3.5c0,2.7,0.5,5.5-2.3,7.5c-1.5,1.3-1,3,0.2,4
		c1.2,1.3,2.7,1,4.2,0c3.5-2.5,5-5.8,4-9.5C38.3,31.8,38.3,30.3,38,28.8z"/>
</g>
</svg>
