<?xml version="1.0" encoding="utf-8"?>
<!-- Generator: Adobe Illustrator 23.1.0, SVG Export Plug-In . SVG Version: 6.00 Build 0)  -->
<svg version="1.1" id="Layer_1" xmlns="http://www.w3.org/2000/svg" xmlns:xlink="http://www.w3.org/1999/xlink" x="0px" y="0px"
	viewBox="0 0 24 24" style="enable-background:new 0 0 24 24;" xml:space="preserve">
<g>
	<path d="M3.9,7.6c1-1.6,2.5-2.8,4.3-3.5C9,3.7,8.8,3.4,8.3,3c-1-1-2.7-1.3-4-0.6C2.9,3,2.1,4.2,2,5.7c0,0.7,0.2,1.2,0.4,1.8
		C2.8,8.2,3.2,8.6,3.9,7.6z"/>
	<path d="M19.8,2.3c-1.3-0.6-3-0.3-4,0.7c-0.5,0.5-0.7,0.7,0.2,1.1c1.6,0.7,3,1.7,4.1,3.1c0.3,0.4,0.4,1.2,1,1
		c0.5-0.2,0.7-0.9,0.9-1.4C22,6.4,22,6.1,22,5.8C22,4.1,21.2,3,19.8,2.3z"/>
	<path d="M20,19.5c-1-0.7-0.8-1.3-0.3-2.3c3.1-5.8-1.1-12.7-7.7-12.7c-6.7,0-10.9,7-7.7,12.9c0.4,0.8,0.5,1.3-0.3,1.9
		c-0.7,0.6-1.3,1.4-0.4,2.2c0.8,0.8,1.6,0.2,2.2-0.5c0.6-0.8,1.1-0.7,1.9-0.2c2.8,1.5,5.6,1.6,8.4,0c0.9-0.5,1.4-0.4,2,0.3
		c0.6,0.7,1.3,1.1,2.1,0.4C21.2,20.8,20.7,20,20,19.5z M12,19.5c-3.4,0-6.3-2.9-6.3-6.3C5.8,9.8,8.6,7,12,7c3.5,0,6.2,2.7,6.2,6.2
		C18.2,16.7,15.5,19.5,12,19.5z"/>
	<path d="M13.2,9.5c0-0.7-0.5-1.2-1.2-1.2c-0.7,0-1.1,0.4-1.2,1c-0.1,0.5-0.1,1-0.1,1.4c0,1.1,0.2,2.2-0.9,3
		c-0.6,0.5-0.4,1.2,0.1,1.6c0.5,0.5,1.1,0.4,1.7,0c1.4-1,2-2.3,1.6-3.8C13.3,10.7,13.3,10.1,13.2,9.5z"/>
</g>
</svg>
