<?xml version="1.0" encoding="utf-8"?>
<!-- Generator: Adobe Illustrator 23.1.0, SVG Export Plug-In . SVG Version: 6.00 Build 0)  -->
<svg version="1.1" id="Layer_1" xmlns="http://www.w3.org/2000/svg" xmlns:xlink="http://www.w3.org/1999/xlink" x="0px" y="0px"
	 viewBox="0 0 70 70" style="enable-background:new 0 0 70 70;" xml:space="preserve">
<style type="text/css">
	.st0{fill:#0093C9;}
</style>
<g>
	<path class="st0" d="M46.2,15.8c-0.8,0.2-1,0.2-1,1s0.2,1.2,1,1.2c0.8,0,1.2,0,2,0c3.5,0,3.7,0,3.7,3.7c0,10.8,0,21.7,0,32.4
		c0,2.5-0.8,3.5-3.3,3.5c-9-0.2-18-0.2-27.2,0c-2.7,0-3.5-1-3.5-3.7c0.2-10.2,0-20.5,0-30.5c0-5,0-5,5-5.5c0.2,0,0.8,0,1-0.2
		c1-0.5,1-1.5,0.2-1.7c-2-0.5-4.2-0.8-6.2,0c-1.7,0.8-2.3,2.3-2.3,4c0,6,0,12,0,17.7c0,5.5,0,11.2,0,16.7c0,4.2,1.2,5.5,5.2,5.5
		c9.2,0,18.7,0,28,0c4,0,5.2-1.2,5.2-5.2c0-11,0-22,0-32.7C54.2,16.5,51.7,14.5,46.2,15.8z"/>
	<path class="st0" d="M23.8,36c0,0.2,0.2,0.5,0.5,0.8c1.2,0.8,4-0.2,4.8-1.5c0.5-0.8,0.5-2,1.5-2.7c1,2.5,2,5,3,7.5
		c0.2,0.5,0.2,1.5,1,1.5c1,0,1-1,1.2-1.7c1-3.3,1.7-6.5,2.7-10.5c1,2,1.7,3.3,2,4.8c0.8,2.7,2.5,2.5,4.8,2.3c0.5,0,1-0.2,1-0.8
		c0-0.8-0.5-0.8-1-0.8c-2.5,0.5-3.3-1.2-3.7-3c-0.5-1.5-1.2-2.7-1.7-4.2c-0.2-0.8-0.2-1.7-1.2-1.7s-0.8,1-1,1.7
		c-1,3.3-1.7,6.5-2.7,10.2c-1-3-2-5-2.7-7.3c-0.2-0.8-0.5-2-1.2-2c-1,0-1,1.2-1.2,2c-0.8,2.3-1.2,4.8-4.5,4C24,35,23.8,35.5,23.8,36
		z"/>
	<path class="st0" d="M45,45.2c-6.5,0-13.3,0-19.7,0c-0.8,0-1.5,0-1.2,1c0,1,1,0.8,1.5,0.8c3.3,0,6.5,0,9.5,0c3.3,0,6.5,0,10,0
		c0.5,0,1.5,0.2,1.5-0.8C46.2,45.2,45.4,45.2,45,45.2z"/>
	<path class="st0" d="M44.4,49.5c-6.5,0-12.7,0-19.2,0c-0.8,0-1.5,0-1.5,0.8c0,1.2,1,0.8,1.7,1c3,0,6.2,0,9.2,0c3.3,0,6.5,0,9.5,0
		c0.8,0,1.7,0.2,1.7-0.8C46.2,49.2,45.2,49.5,44.4,49.5z"/>
	<path class="st0" d="M28.2,19.8c2.3-0.2,4.2,0,6.5,0c2.3,0,4.5-0.2,6.7,0c2.3,0.2,2.3-1.2,2-2.5c0-1.5,0.8-3.5-2-3.3
		c-1.5,0.2-2.5-0.2-3.3-2c-1.2-2.7-5.8-2.7-7,0c-0.8,1.7-1.7,2.3-3.3,2c-2.7-0.2-1.7,1.7-1.7,3.3C25.9,18.8,26.3,20.1,28.2,19.8z
		 M35,12.3c1,0,1.5,0.5,1.5,1.5c0,1.2-0.5,2-1.5,1.7c-1,0-1.5-0.5-1.5-1.7C33.2,12.8,34,12.3,35,12.3z"/>
</g>
</svg>
