<?xml version="1.0" encoding="utf-8"?>
<!-- Generator: Adobe Illustrator 23.1.0, SVG Export Plug-In . SVG Version: 6.00 Build 0)  -->
<svg version="1.1" id="Layer_1" xmlns="http://www.w3.org/2000/svg" xmlns:xlink="http://www.w3.org/1999/xlink" x="0px" y="0px"
	 viewBox="0 0 24 24" style="enable-background:new 0 0 24 24;" xml:space="preserve">
<g>
	<path d="M16.5,4.3c-0.3,0.1-0.4,0.1-0.4,0.4c0,0.3,0.1,0.5,0.4,0.5c0.3,0,0.5,0,0.8,0c1.4,0,1.5,0,1.5,1.5c0,4.3,0,8.7,0,13
		c0,1-0.3,1.4-1.3,1.4c-3.6-0.1-7.2-0.1-10.9,0c-1.1,0-1.4-0.4-1.4-1.5c0.1-4.1,0-8.2,0-12.2c0-2,0-2,2-2.2c0.1,0,0.3,0,0.4-0.1
		C8,4.9,8,4.5,7.7,4.4C6.9,4.2,6,4.1,5.2,4.4C4.5,4.7,4.3,5.3,4.3,6c0,2.4,0,4.8,0,7.1c0,2.2,0,4.5,0,6.7c0,1.7,0.5,2.2,2.1,2.2
		c3.7,0,7.5,0,11.2,0c1.6,0,2.1-0.5,2.1-2.1c0-4.4,0-8.8,0-13.1C19.7,4.6,18.7,3.8,16.5,4.3z"/>
	<path d="M7.5,12.4c0,0.1,0.1,0.2,0.2,0.3c0.5,0.3,1.6-0.1,1.9-0.6c0.2-0.3,0.2-0.8,0.6-1.1C10.6,12,11,13,11.4,14
		c0.1,0.2,0.1,0.6,0.4,0.6c0.4,0,0.4-0.4,0.5-0.7c0.4-1.3,0.7-2.6,1.1-4.2c0.4,0.8,0.7,1.3,0.8,1.9c0.3,1.1,1,1,1.9,0.9
		c0.2,0,0.4-0.1,0.4-0.3c0-0.3-0.2-0.3-0.4-0.3c-1,0.2-1.3-0.5-1.5-1.2c-0.2-0.6-0.5-1.1-0.7-1.7c-0.1-0.3-0.1-0.7-0.5-0.7
		c-0.4,0-0.3,0.4-0.4,0.7c-0.4,1.3-0.7,2.6-1.1,4.1c-0.4-1.2-0.8-2-1.1-2.9c-0.1-0.3-0.2-0.8-0.5-0.8c-0.4,0-0.4,0.5-0.5,0.8
		c-0.3,0.9-0.5,1.9-1.8,1.6C7.6,12,7.5,12.2,7.5,12.4z"/>
	<path d="M16,16.1c-2.6,0-5.3,0-7.9,0c-0.3,0-0.6,0-0.5,0.4c0,0.4,0.4,0.3,0.6,0.3c1.3,0,2.6,0,3.8,0c1.3,0,2.6,0,4,0
		c0.2,0,0.6,0.1,0.6-0.3C16.5,16.1,16.2,16.1,16,16.1z"/>
	<path d="M15.8,17.8c-2.6,0-5.1,0-7.7,0c-0.3,0-0.6,0-0.6,0.3c0,0.5,0.4,0.3,0.7,0.4c1.2,0,2.5,0,3.7,0c1.3,0,2.6,0,3.8,0
		c0.3,0,0.7,0.1,0.7-0.3C16.5,17.7,16.1,17.8,15.8,17.8z"/>
	<path d="M9.3,5.9c0.9-0.1,1.7,0,2.6,0c0.9,0,1.8-0.1,2.7,0c0.9,0.1,0.9-0.5,0.8-1c0-0.6,0.3-1.4-0.8-1.3c-0.6,0.1-1-0.1-1.3-0.8
		c-0.5-1.1-2.3-1.1-2.8,0c-0.3,0.7-0.7,0.9-1.3,0.8C8.1,3.5,8.5,4.3,8.5,4.9C8.4,5.5,8.5,6,9.3,5.9z M12,2.9c0.4,0,0.6,0.2,0.6,0.6
		C12.6,4,12.4,4.3,12,4.2c-0.4,0-0.6-0.2-0.6-0.7C11.3,3.1,11.6,2.9,12,2.9z"/>
</g>
</svg>
