<?xml version="1.0" encoding="utf-8"?>
<!-- Generator: Adobe Illustrator 23.1.0, SVG Export Plug-In . SVG Version: 6.00 Build 0)  -->
<svg version="1.1" id="Layer_1" xmlns="http://www.w3.org/2000/svg" xmlns:xlink="http://www.w3.org/1999/xlink" x="0px" y="0px"
	 viewBox="0 0 24 24" style="enable-background:new 0 0 24 24;" xml:space="preserve">
<style type="text/css">
	.st0{fill:none;}
</style>
<path class="st0" d="M0,0h24v24H0V0z"/>
<path d="M18.7,10.2C18.1,7,15.3,4.7,12,4.7c-2.6,0-5,1.5-6.1,3.7C3.1,8.7,1,11,1,13.8c0,3,2.5,5.5,5.5,5.5h11.9
	c2.5,0,4.6-2.1,4.6-4.6C23,12.3,21.1,10.4,18.7,10.2z M7.8,14.1l1.1-0.4c0.3-0.1,0.5,0.2,0.4,0.4l-1,2.4c-0.1,0.2-0.3,0.2-0.4,0.2
	l-2.4-1c-0.3-0.1-0.3-0.5,0-0.6l1.1-0.4c-1.1-2.6,0.2-5.7,2.8-6.8c0.6-0.3,1.3-0.4,1.9-0.4c0.5,0,0.8,0.5,0.6,0.9
	c-0.1,0.2-0.3,0.4-0.6,0.4c-0.5,0-1,0.1-1.5,0.3C7.9,9.8,7,12.1,7.8,14.1z M17.3,10.2l-1.1,0.4c1.1,2.6-0.2,5.7-2.8,6.8
	c-0.6,0.3-1.3,0.4-1.9,0.4c-0.5,0-0.8-0.5-0.6-0.9c0.1-0.2,0.3-0.4,0.6-0.4c0.5,0,1-0.1,1.5-0.3c2-0.8,2.9-3.1,2.1-5.1l-1.1,0.4
	c-0.3,0.1-0.5-0.2-0.4-0.4l1-2.4c0.1-0.2,0.3-0.2,0.4-0.2l2.4,1C17.5,9.7,17.5,10.1,17.3,10.2z"/>
</svg>
